<mxfile host="app.diagrams.net" modified="2023-06-30T08:11:50.766Z" agent="Mozilla/5.0 (Windows NT 10.0; Win64; x64) AppleWebKit/537.36 (KHTML, like Gecko) Chrome/114.0.0.0 Safari/537.36" etag="M9Eevno_CvDfiXm28_Tg" version="21.4.0" type="device">
  <diagram name="Page-1" id="2YBvvXClWsGukQMizWep">
    <mxGraphModel dx="993" dy="588" grid="1" gridSize="10" guides="1" tooltips="1" connect="1" arrows="1" fold="1" page="1" pageScale="1" pageWidth="850" pageHeight="1100" math="0" shadow="0">
      <root>
        <mxCell id="0" />
        <mxCell id="1" parent="0" />
        <mxCell id="aM9ryv3xv72pqoxQDRHE-5" value="VM" style="shape=umlLifeline;perimeter=lifelinePerimeter;whiteSpace=wrap;html=1;container=0;dropTarget=0;collapsible=0;recursiveResize=0;outlineConnect=0;portConstraint=eastwest;newEdgeStyle={&quot;edgeStyle&quot;:&quot;elbowEdgeStyle&quot;,&quot;elbow&quot;:&quot;vertical&quot;,&quot;curved&quot;:0,&quot;rounded&quot;:0};" parent="1" vertex="1">
          <mxGeometry x="220" y="40" width="100" height="880" as="geometry" />
        </mxCell>
        <mxCell id="aM9ryv3xv72pqoxQDRHE-6" value="" style="html=1;points=[];perimeter=orthogonalPerimeter;outlineConnect=0;targetShapes=umlLifeline;portConstraint=eastwest;newEdgeStyle={&quot;edgeStyle&quot;:&quot;elbowEdgeStyle&quot;,&quot;elbow&quot;:&quot;vertical&quot;,&quot;curved&quot;:0,&quot;rounded&quot;:0};" parent="aM9ryv3xv72pqoxQDRHE-5" vertex="1">
          <mxGeometry x="45" y="80" width="10" height="780" as="geometry" />
        </mxCell>
        <mxCell id="aM9ryv3xv72pqoxQDRHE-7" value="Upload file" style="html=1;verticalAlign=bottom;endArrow=block;edgeStyle=elbowEdgeStyle;elbow=vertical;curved=0;rounded=0;" parent="1" source="7LxwaiRaGuBsyWcB-yQU-6" target="aM9ryv3xv72pqoxQDRHE-5" edge="1">
          <mxGeometry relative="1" as="geometry">
            <mxPoint x="160" y="120" as="sourcePoint" />
            <Array as="points">
              <mxPoint x="170" y="140" />
            </Array>
            <mxPoint x="190" y="130" as="targetPoint" />
          </mxGeometry>
        </mxCell>
        <mxCell id="7LxwaiRaGuBsyWcB-yQU-1" value="" style="shape=umlActor;verticalLabelPosition=bottom;verticalAlign=top;html=1;outlineConnect=0;" vertex="1" parent="1">
          <mxGeometry x="75" y="30" width="30" height="60" as="geometry" />
        </mxCell>
        <mxCell id="7LxwaiRaGuBsyWcB-yQU-4" value="Database" style="shape=umlLifeline;perimeter=lifelinePerimeter;whiteSpace=wrap;html=1;container=0;dropTarget=0;collapsible=0;recursiveResize=0;outlineConnect=0;portConstraint=eastwest;newEdgeStyle={&quot;edgeStyle&quot;:&quot;elbowEdgeStyle&quot;,&quot;elbow&quot;:&quot;vertical&quot;,&quot;curved&quot;:0,&quot;rounded&quot;:0};" vertex="1" parent="1">
          <mxGeometry x="375" y="40" width="100" height="880" as="geometry" />
        </mxCell>
        <mxCell id="7LxwaiRaGuBsyWcB-yQU-5" value="" style="html=1;points=[];perimeter=orthogonalPerimeter;outlineConnect=0;targetShapes=umlLifeline;portConstraint=eastwest;newEdgeStyle={&quot;edgeStyle&quot;:&quot;elbowEdgeStyle&quot;,&quot;elbow&quot;:&quot;vertical&quot;,&quot;curved&quot;:0,&quot;rounded&quot;:0};" vertex="1" parent="7LxwaiRaGuBsyWcB-yQU-4">
          <mxGeometry x="45" y="120" width="10" height="740" as="geometry" />
        </mxCell>
        <mxCell id="7LxwaiRaGuBsyWcB-yQU-8" value="" style="endArrow=none;dashed=1;html=1;rounded=0;" edge="1" parent="1" source="7LxwaiRaGuBsyWcB-yQU-6" target="7LxwaiRaGuBsyWcB-yQU-1">
          <mxGeometry width="50" height="50" relative="1" as="geometry">
            <mxPoint x="90" y="380" as="sourcePoint" />
            <mxPoint x="230" y="90" as="targetPoint" />
          </mxGeometry>
        </mxCell>
        <mxCell id="7LxwaiRaGuBsyWcB-yQU-10" value="" style="endArrow=none;dashed=1;html=1;rounded=0;" edge="1" parent="1" target="7LxwaiRaGuBsyWcB-yQU-6">
          <mxGeometry width="50" height="50" relative="1" as="geometry">
            <mxPoint x="90" y="930" as="sourcePoint" />
            <mxPoint x="90" y="90" as="targetPoint" />
          </mxGeometry>
        </mxCell>
        <mxCell id="7LxwaiRaGuBsyWcB-yQU-6" value="" style="html=1;points=[];perimeter=orthogonalPerimeter;outlineConnect=0;targetShapes=umlLifeline;portConstraint=eastwest;newEdgeStyle={&quot;edgeStyle&quot;:&quot;elbowEdgeStyle&quot;,&quot;elbow&quot;:&quot;vertical&quot;,&quot;curved&quot;:0,&quot;rounded&quot;:0};" vertex="1" parent="1">
          <mxGeometry x="85" y="120" width="10" height="780" as="geometry" />
        </mxCell>
        <mxCell id="7LxwaiRaGuBsyWcB-yQU-11" value="API Virustotal" style="shape=umlLifeline;perimeter=lifelinePerimeter;whiteSpace=wrap;html=1;container=0;dropTarget=0;collapsible=0;recursiveResize=0;outlineConnect=0;portConstraint=eastwest;newEdgeStyle={&quot;edgeStyle&quot;:&quot;elbowEdgeStyle&quot;,&quot;elbow&quot;:&quot;vertical&quot;,&quot;curved&quot;:0,&quot;rounded&quot;:0};" vertex="1" parent="1">
          <mxGeometry x="520" y="40" width="100" height="880" as="geometry" />
        </mxCell>
        <mxCell id="7LxwaiRaGuBsyWcB-yQU-12" value="" style="html=1;points=[];perimeter=orthogonalPerimeter;outlineConnect=0;targetShapes=umlLifeline;portConstraint=eastwest;newEdgeStyle={&quot;edgeStyle&quot;:&quot;elbowEdgeStyle&quot;,&quot;elbow&quot;:&quot;vertical&quot;,&quot;curved&quot;:0,&quot;rounded&quot;:0};" vertex="1" parent="7LxwaiRaGuBsyWcB-yQU-11">
          <mxGeometry x="45" y="290" width="10" height="110" as="geometry" />
        </mxCell>
        <mxCell id="7LxwaiRaGuBsyWcB-yQU-13" value="VM de Test" style="shape=umlLifeline;perimeter=lifelinePerimeter;whiteSpace=wrap;html=1;container=0;dropTarget=0;collapsible=0;recursiveResize=0;outlineConnect=0;portConstraint=eastwest;newEdgeStyle={&quot;edgeStyle&quot;:&quot;elbowEdgeStyle&quot;,&quot;elbow&quot;:&quot;vertical&quot;,&quot;curved&quot;:0,&quot;rounded&quot;:0};" vertex="1" parent="1">
          <mxGeometry x="660" y="40" width="100" height="880" as="geometry" />
        </mxCell>
        <mxCell id="7LxwaiRaGuBsyWcB-yQU-14" value="" style="html=1;points=[];perimeter=orthogonalPerimeter;outlineConnect=0;targetShapes=umlLifeline;portConstraint=eastwest;newEdgeStyle={&quot;edgeStyle&quot;:&quot;elbowEdgeStyle&quot;,&quot;elbow&quot;:&quot;vertical&quot;,&quot;curved&quot;:0,&quot;rounded&quot;:0};" vertex="1" parent="7LxwaiRaGuBsyWcB-yQU-13">
          <mxGeometry x="45" y="500" width="10" height="80" as="geometry" />
        </mxCell>
        <mxCell id="7LxwaiRaGuBsyWcB-yQU-16" value="alt" style="shape=umlFrame;whiteSpace=wrap;html=1;" vertex="1" parent="1">
          <mxGeometry x="40" y="230" width="720" height="80" as="geometry" />
        </mxCell>
        <mxCell id="7LxwaiRaGuBsyWcB-yQU-15" value="Check Database" style="html=1;verticalAlign=bottom;endArrow=block;edgeStyle=elbowEdgeStyle;elbow=vertical;curved=0;rounded=0;" edge="1" parent="1" source="aM9ryv3xv72pqoxQDRHE-5" target="7LxwaiRaGuBsyWcB-yQU-4">
          <mxGeometry relative="1" as="geometry">
            <mxPoint x="270" y="160" as="sourcePoint" />
            <Array as="points">
              <mxPoint x="360" y="180" />
              <mxPoint x="325" y="160" />
            </Array>
            <mxPoint x="425" y="160" as="targetPoint" />
          </mxGeometry>
        </mxCell>
        <mxCell id="7LxwaiRaGuBsyWcB-yQU-17" value="&lt;b&gt;&amp;nbsp;[if signature known]&lt;/b&gt;" style="text;html=1;strokeColor=none;fillColor=none;align=center;verticalAlign=middle;whiteSpace=wrap;rounded=0;" vertex="1" parent="1">
          <mxGeometry x="260" y="230" width="170" height="30" as="geometry" />
        </mxCell>
        <mxCell id="7LxwaiRaGuBsyWcB-yQU-18" value="return result" style="html=1;verticalAlign=bottom;endArrow=open;dashed=1;endSize=8;edgeStyle=elbowEdgeStyle;elbow=vertical;curved=0;rounded=0;" edge="1" parent="1" source="7LxwaiRaGuBsyWcB-yQU-5" target="aM9ryv3xv72pqoxQDRHE-5">
          <mxGeometry x="-0.0377" relative="1" as="geometry">
            <mxPoint x="295" y="260" as="targetPoint" />
            <Array as="points">
              <mxPoint x="400" y="210" />
              <mxPoint x="330" y="290" />
              <mxPoint x="345" y="260" />
            </Array>
            <mxPoint x="360" y="260" as="sourcePoint" />
            <mxPoint as="offset" />
          </mxGeometry>
        </mxCell>
        <mxCell id="7LxwaiRaGuBsyWcB-yQU-20" value="else" style="shape=umlFrame;whiteSpace=wrap;html=1;" vertex="1" parent="1">
          <mxGeometry x="40" y="310" width="720" height="570" as="geometry" />
        </mxCell>
        <mxCell id="7LxwaiRaGuBsyWcB-yQU-19" value="return result : file malicious" style="html=1;verticalAlign=bottom;endArrow=open;dashed=1;endSize=8;edgeStyle=elbowEdgeStyle;elbow=vertical;curved=0;rounded=0;" edge="1" parent="1" source="aM9ryv3xv72pqoxQDRHE-5" target="7LxwaiRaGuBsyWcB-yQU-6">
          <mxGeometry x="-0.0377" relative="1" as="geometry">
            <mxPoint x="100" y="280" as="targetPoint" />
            <Array as="points">
              <mxPoint x="175" y="280" />
            </Array>
            <mxPoint x="255" y="280" as="sourcePoint" />
            <mxPoint as="offset" />
          </mxGeometry>
        </mxCell>
        <mxCell id="7LxwaiRaGuBsyWcB-yQU-23" value="alt" style="shape=umlFrame;whiteSpace=wrap;html=1;" vertex="1" parent="1">
          <mxGeometry x="50" y="410" width="690" height="110" as="geometry" />
        </mxCell>
        <mxCell id="7LxwaiRaGuBsyWcB-yQU-22" value="Check Signature with API" style="html=1;verticalAlign=bottom;endArrow=block;edgeStyle=elbowEdgeStyle;elbow=vertical;curved=0;rounded=0;" edge="1" parent="1" source="aM9ryv3xv72pqoxQDRHE-5" target="7LxwaiRaGuBsyWcB-yQU-11">
          <mxGeometry relative="1" as="geometry">
            <mxPoint x="300" y="360" as="sourcePoint" />
            <Array as="points">
              <mxPoint x="400" y="350" />
              <mxPoint x="375" y="360" />
            </Array>
            <mxPoint x="475" y="360" as="targetPoint" />
          </mxGeometry>
        </mxCell>
        <mxCell id="7LxwaiRaGuBsyWcB-yQU-24" value="return result" style="html=1;verticalAlign=bottom;endArrow=open;dashed=1;endSize=8;edgeStyle=elbowEdgeStyle;elbow=vertical;curved=0;rounded=0;" edge="1" parent="1" source="7LxwaiRaGuBsyWcB-yQU-12" target="aM9ryv3xv72pqoxQDRHE-5">
          <mxGeometry x="-0.0377" relative="1" as="geometry">
            <mxPoint x="430" y="430" as="targetPoint" />
            <Array as="points">
              <mxPoint x="500" y="380" />
              <mxPoint x="470" y="400" />
              <mxPoint x="496" y="430" />
            </Array>
            <mxPoint x="570" y="430" as="sourcePoint" />
            <mxPoint as="offset" />
          </mxGeometry>
        </mxCell>
        <mxCell id="7LxwaiRaGuBsyWcB-yQU-28" value="else" style="shape=umlFrame;whiteSpace=wrap;html=1;" vertex="1" parent="1">
          <mxGeometry x="50" y="520" width="690" height="340" as="geometry" />
        </mxCell>
        <mxCell id="7LxwaiRaGuBsyWcB-yQU-25" value="&lt;b&gt;&amp;nbsp;[if signature known]&lt;/b&gt;" style="text;html=1;strokeColor=none;fillColor=none;align=center;verticalAlign=middle;whiteSpace=wrap;rounded=0;" vertex="1" parent="1">
          <mxGeometry x="260" y="410" width="170" height="30" as="geometry" />
        </mxCell>
        <mxCell id="7LxwaiRaGuBsyWcB-yQU-27" value="return result : file malicious" style="html=1;verticalAlign=bottom;endArrow=open;dashed=1;endSize=8;edgeStyle=elbowEdgeStyle;elbow=vertical;curved=0;rounded=0;" edge="1" parent="1">
          <mxGeometry x="-0.0377" relative="1" as="geometry">
            <mxPoint x="95" y="500" as="targetPoint" />
            <Array as="points">
              <mxPoint x="175" y="500" />
            </Array>
            <mxPoint x="260" y="500" as="sourcePoint" />
            <mxPoint as="offset" />
          </mxGeometry>
        </mxCell>
        <mxCell id="7LxwaiRaGuBsyWcB-yQU-31" value="alt" style="shape=umlFrame;whiteSpace=wrap;html=1;" vertex="1" parent="1">
          <mxGeometry x="57.5" y="630" width="675" height="120" as="geometry" />
        </mxCell>
        <mxCell id="7LxwaiRaGuBsyWcB-yQU-29" value="Send File for testings" style="html=1;verticalAlign=bottom;endArrow=block;edgeStyle=elbowEdgeStyle;elbow=vertical;curved=0;rounded=0;" edge="1" parent="1" source="aM9ryv3xv72pqoxQDRHE-5" target="7LxwaiRaGuBsyWcB-yQU-13">
          <mxGeometry relative="1" as="geometry">
            <mxPoint x="270" y="530" as="sourcePoint" />
            <Array as="points">
              <mxPoint x="390" y="560" />
              <mxPoint x="520" y="600" />
              <mxPoint x="401" y="530" />
              <mxPoint x="376" y="540" />
            </Array>
            <mxPoint x="571" y="530" as="targetPoint" />
          </mxGeometry>
        </mxCell>
        <mxCell id="7LxwaiRaGuBsyWcB-yQU-32" value="&lt;b&gt;&amp;nbsp;[file recognized as malicious]&lt;/b&gt;" style="text;html=1;strokeColor=none;fillColor=none;align=center;verticalAlign=middle;whiteSpace=wrap;rounded=0;" vertex="1" parent="1">
          <mxGeometry x="322.5" y="630" width="200" height="30" as="geometry" />
        </mxCell>
        <mxCell id="7LxwaiRaGuBsyWcB-yQU-33" value="send result" style="html=1;verticalAlign=bottom;endArrow=open;dashed=1;endSize=8;edgeStyle=elbowEdgeStyle;elbow=vertical;curved=0;rounded=0;" edge="1" parent="1" target="aM9ryv3xv72pqoxQDRHE-5">
          <mxGeometry x="-0.0377" relative="1" as="geometry">
            <mxPoint x="425.0000000000002" y="600" as="targetPoint" />
            <Array as="points">
              <mxPoint x="520.75" y="600" />
              <mxPoint x="540.75" y="610" />
              <mxPoint x="626.75" y="600" />
            </Array>
            <mxPoint x="710.25" y="600" as="sourcePoint" />
            <mxPoint as="offset" />
          </mxGeometry>
        </mxCell>
        <mxCell id="7LxwaiRaGuBsyWcB-yQU-60" value="else" style="shape=umlFrame;whiteSpace=wrap;html=1;" vertex="1" parent="1">
          <mxGeometry x="57.5" y="750" width="675" height="90" as="geometry" />
        </mxCell>
        <mxCell id="7LxwaiRaGuBsyWcB-yQU-35" value="return result : file malicious" style="html=1;verticalAlign=bottom;endArrow=open;dashed=1;endSize=8;edgeStyle=elbowEdgeStyle;elbow=vertical;curved=0;rounded=0;" edge="1" parent="1">
          <mxGeometry x="-0.0377" relative="1" as="geometry">
            <mxPoint x="97.5" y="720" as="targetPoint" />
            <Array as="points">
              <mxPoint x="177.5" y="720" />
            </Array>
            <mxPoint x="272" y="720" as="sourcePoint" />
            <mxPoint as="offset" />
          </mxGeometry>
        </mxCell>
        <mxCell id="7LxwaiRaGuBsyWcB-yQU-62" value="send signature" style="html=1;verticalAlign=bottom;endArrow=block;edgeStyle=elbowEdgeStyle;elbow=vertical;curved=0;rounded=0;" edge="1" parent="1">
          <mxGeometry relative="1" as="geometry">
            <mxPoint x="280" y="469" as="sourcePoint" />
            <Array as="points">
              <mxPoint x="360" y="469.38" />
              <mxPoint x="325" y="449.38" />
            </Array>
            <mxPoint x="420" y="470" as="targetPoint" />
          </mxGeometry>
        </mxCell>
        <mxCell id="7LxwaiRaGuBsyWcB-yQU-63" value="send signature" style="html=1;verticalAlign=bottom;endArrow=block;edgeStyle=elbowEdgeStyle;elbow=vertical;curved=0;rounded=0;" edge="1" parent="1">
          <mxGeometry relative="1" as="geometry">
            <mxPoint x="275" y="680" as="sourcePoint" />
            <Array as="points">
              <mxPoint x="355" y="680.38" />
              <mxPoint x="320" y="660.38" />
            </Array>
            <mxPoint x="415" y="681" as="targetPoint" />
          </mxGeometry>
        </mxCell>
        <mxCell id="7LxwaiRaGuBsyWcB-yQU-64" value="return result : file not malicious ?" style="html=1;verticalAlign=bottom;endArrow=open;dashed=1;endSize=8;edgeStyle=elbowEdgeStyle;elbow=vertical;curved=0;rounded=0;" edge="1" parent="1">
          <mxGeometry x="-0.0377" relative="1" as="geometry">
            <mxPoint x="95" y="810" as="targetPoint" />
            <Array as="points">
              <mxPoint x="175" y="810" />
            </Array>
            <mxPoint x="269.5" y="810" as="sourcePoint" />
            <mxPoint as="offset" />
          </mxGeometry>
        </mxCell>
      </root>
    </mxGraphModel>
  </diagram>
</mxfile>
